<svg xmlns="http://www.w3.org/2000/svg" viewBox="0 0 368 368"><defs><style>.cls-1{fill:#2bbc8a;}.cls-2{fill:#fff;}</style></defs><g id="Layer_2" data-name="Layer 2"><g id="Layer_1-2" data-name="Layer 1"><circle class="cls-1" cx="184" cy="184" r="174"/><path class="cls-2" d="M184,20A164,164,0,0,1,300,300,164,164,0,0,1,68,68,163,163,0,0,1,184,20m0-20A184,184,0,1,0,368,184,184,184,0,0,0,184,0Z"/><g id="layer1"><g id="layer1-4"><path id="path4624" class="cls-2" d="M184.42,36l-5.6,78.23-3.37,5.57v15.65h-3.33v3.37h2.23v4.47c-13.41,12.31-17.88,28-21.25,44.7l-2.68,2.92.45.45h2.23v8.94l-4.47,3.37v35.76h23.49l31.38-85.5a56.72,56.72,0,0,0-9-10.61v-4.47h2.23v-3.37h-3.34V119.83l-3.36-5.6L184.42,36m0,203.4h-6.7l28.91-80.2c4.59,8.85,7.06,18.6,9.09,28.79l2.68,2.92-.45.45h-2.23v8.94l4.47,3.37v35.76H184.42"/><path id="path4637" class="cls-2" d="M72.67,198.06v2.24l53.64,38v-6.71L78.24,198.06m-5.57,0v-2.23l53.64-38v6.71L78.24,198.06"/><path id="path4640" class="cls-2" d="M296.18,198.06v2.24l-53.64,38v-6.71l48.07-33.53m5.57,0v-2.23l-53.64-38v6.71l48.07,33.52"/></g></g><path class="cls-2" d="M99.44,257.52h13.87c8.48,0,15.31,3.07,15.31,12.58,0,9.21-7,13.26-15.31,13.26h-5v13.26H99.44Zm13.35,18.82c4.85,0,7.16-2.18,7.16-6.24s-2.5-5.55-7.16-5.55h-4.5v11.79Z"/><path class="cls-2" d="M180.53,264.94H168.81v-7.42H201.1v7.42H189.38v31.68h-8.85Z"/><path class="cls-2" d="M242.21,277.29c0-13,8.2-20.49,18.68-20.49a16.76,16.76,0,0,1,11.66,5l-4.87,5.47a9.53,9.53,0,0,0-6.79-2.8c-5.55,0-9.61,4.72-9.61,12.55,0,8,4.06,12.7,10,12.7a9.53,9.53,0,0,0,7-3.45l4.87,5.35a16.16,16.16,0,0,1-12.83,5.74C250.6,297.34,242.21,290.48,242.21,277.29Z"/></g></g></svg>